<svg width="26" height="24" viewBox="0 0 26 24" fill="none" xmlns="http://www.w3.org/2000/svg">
<g clip-path="url(#clip0_915_381)">
<path d="M13.9902 23.8913H12.409C11.1301 23.8913 10.0895 22.9095 10.0895 21.7027V21.1979C9.54583 21.034 9.01757 20.8271 8.51007 20.5793L8.13096 20.937C7.21277 21.8045 5.74195 21.779 4.85043 20.9367L3.73284 19.8822C2.83974 19.0404 2.81405 17.653 3.73313 16.7867L4.11195 16.4292C3.84932 15.9504 3.63009 15.452 3.45633 14.9389H2.92143C1.64258 14.9389 0.602051 13.9571 0.602051 12.7503V11.2582C0.602051 10.0514 1.64258 9.06966 2.92148 9.06966H3.45638C3.63014 8.55657 3.84937 8.05815 4.112 7.57928L3.73289 7.2216C2.81435 6.3558 2.83969 4.96827 3.73318 4.12611L4.85087 3.07151C5.74446 2.22716 7.21493 2.20608 8.13136 3.07179L8.51012 3.42918C9.01762 3.18142 9.54588 2.97451 10.0896 2.81055V2.30582C10.0896 1.09906 11.1301 0.117264 12.409 0.117264H13.9903C15.2692 0.117264 16.3096 1.09906 16.3096 2.30582V2.8106C16.8533 2.97451 17.3816 3.18142 17.8891 3.42923L18.2682 3.07151C19.1864 2.20404 20.6572 2.22948 21.5487 3.07183L22.6663 4.12634C23.5594 4.96813 23.5851 6.35552 22.666 7.22183L22.2872 7.57928C22.5499 8.05815 22.7691 8.55652 22.9428 9.06966H23.4777C24.7566 9.06966 25.7972 10.0514 25.7972 11.2582V12.7503C25.7972 13.9571 24.7566 14.9389 23.4777 14.9389H22.9428C22.7691 15.452 22.5499 15.9504 22.2872 16.4292L22.6663 16.787C23.5849 17.6528 23.5595 19.0403 22.666 19.8825L21.5483 20.9371C20.6548 21.7814 19.1843 21.8025 18.2679 20.9368L17.8891 20.5794C17.3816 20.8271 16.8533 21.0341 16.3096 21.198V21.7028C16.3096 22.9095 15.2692 23.8913 13.9902 23.8913ZM8.75686 19.1165C9.46188 19.5099 10.2207 19.8071 11.0122 19.9999C11.3381 20.0792 11.5659 20.3566 11.5659 20.6743V21.7027C11.5659 22.1414 11.9441 22.4982 12.409 22.4982H13.9903C14.4551 22.4982 14.8334 22.1414 14.8334 21.7027V20.6743C14.8334 20.3566 15.0611 20.0792 15.3871 19.9999C16.1786 19.8071 16.9374 19.5099 17.6424 19.1165C17.9325 18.9546 18.3018 18.9986 18.5401 19.2235L19.3121 19.952C19.645 20.2665 20.1795 20.2592 20.5042 19.9523L21.6226 18.8971C21.9465 18.5918 21.9573 18.0874 21.6229 17.7722L20.8505 17.0435C20.6122 16.8186 20.5656 16.4701 20.7371 16.1964C21.154 15.5312 21.469 14.8152 21.6732 14.0683C21.7574 13.7607 22.0514 13.5459 22.388 13.5459H23.4778C23.9427 13.5459 24.3209 13.189 24.3209 12.7504V11.2583C24.3209 10.8196 23.9427 10.4627 23.4778 10.4627H22.388C22.0513 10.4627 21.7574 10.2478 21.6732 9.94029C21.469 9.1934 21.154 8.4774 20.7371 7.81219C20.5656 7.53851 20.6122 7.18998 20.8505 6.96515L21.6226 6.23665C21.9563 5.92211 21.9476 5.41784 21.6229 5.1118L20.5046 4.0566C20.1804 3.75032 19.6458 3.74136 19.3125 4.05632L18.5402 4.78509C18.3019 5.00997 17.9325 5.05399 17.6425 4.89212C16.9374 4.49869 16.1786 4.20147 15.3872 4.00872C15.0612 3.92937 14.8335 3.65197 14.8335 3.33432V2.30582C14.8335 1.86716 14.4552 1.51027 13.9903 1.51027H12.4091C11.9442 1.51027 11.5659 1.86716 11.5659 2.30582V3.33423C11.5659 3.65188 11.3382 3.92927 11.0122 4.00863C10.2207 4.20138 9.46193 4.4986 8.7569 4.89203C8.46677 5.05385 8.09745 5.00983 7.85918 4.785L7.08719 4.0565C6.75434 3.74205 6.21978 3.74934 5.89514 4.05618L4.77676 5.11143C4.45287 5.41668 4.44204 5.92109 4.77647 6.23628L5.54881 6.96505C5.78708 7.18989 5.83373 7.53842 5.66224 7.8121C5.24529 8.4773 4.93035 9.19331 4.72608 9.94019C4.64193 10.2478 4.34795 10.4626 4.01136 10.4626H2.92148C2.4566 10.4627 2.07833 10.8196 2.07833 11.2582V12.7503C2.07833 13.189 2.4566 13.5459 2.92148 13.5459H4.01131C4.34796 13.5459 4.64188 13.7607 4.72603 14.0683C4.9303 14.8152 5.24529 15.5312 5.66219 16.1964C5.83368 16.4701 5.78703 16.8186 5.54876 17.0434L4.77672 17.7719C4.44298 18.0865 4.45169 18.5907 4.77642 18.8968L5.8947 19.952C6.21884 20.2582 6.75345 20.2672 7.08679 19.9522L7.85908 19.2235C8.03466 19.0578 8.39994 18.9173 8.75686 19.1165Z" fill="white"/>
<path d="M13.1997 17.177C10.1769 17.177 7.71777 14.8565 7.71777 12.0043C7.71777 9.15203 10.1769 6.83156 13.1997 6.83156C16.2225 6.83156 18.6816 9.15203 18.6816 12.0043C18.6816 14.8565 16.2225 17.177 13.1997 17.177ZM13.1997 8.22457C10.9909 8.22457 9.19405 9.92013 9.19405 12.0043C9.19405 14.0884 10.991 15.784 13.1997 15.784C15.4084 15.784 17.2053 14.0884 17.2053 12.0043C17.2053 9.92013 15.4084 8.22457 13.1997 8.22457Z" fill="white"/>
</g>
<defs>
<clipPath id="clip0_915_381">
<rect width="25.1951" height="23.774" fill="white" transform="translate(0.602051 0.117264)"/>
</clipPath>
</defs>
</svg>
