<svg width="20" height="20" viewBox="0 0 20 20" fill="none" xmlns="http://www.w3.org/2000/svg">
<g clip-path="url(#clip0_915_369)">
<path d="M19.7556 17.6856L14.0682 12.2771C15.1699 10.983 15.8332 9.33861 15.8332 7.54767C15.8332 3.39677 12.2815 0.0193024 7.91656 0.0193024C3.55161 0.0193024 0 3.39674 0 7.54763C0 11.6985 3.55165 15.076 7.9166 15.076C9.7999 15.076 11.5291 14.4452 12.8899 13.3976L18.5773 18.8061C18.7398 18.9606 18.9531 19.0383 19.1665 19.0383C19.3798 19.0383 19.5932 18.9606 19.7557 18.8061C20.0815 18.4963 20.0815 17.9954 19.7556 17.6856ZM7.9166 13.4911C4.46996 13.4911 1.66666 10.8253 1.66666 7.54763C1.66666 4.27001 4.46996 1.60419 7.9166 1.60419C11.3632 1.60419 14.1665 4.27001 14.1665 7.54763C14.1665 10.8253 11.3632 13.4911 7.9166 13.4911Z" fill="#585050"/>
</g>
<defs>
<clipPath id="clip0_915_369">
<rect width="20" height="19.0192" fill="white" transform="translate(0 0.0191803)"/>
</clipPath>
</defs>
</svg>
